<?xml version="1.0" encoding="utf-8"?>
<!-- Generator: Adobe Illustrator 26.0.1, SVG Export Plug-In . SVG Version: 6.00 Build 0)  -->
<svg version="1.1" id="レイヤー_1" xmlns="http://www.w3.org/2000/svg" xmlns:xlink="http://www.w3.org/1999/xlink" x="0px"
	 y="0px" viewBox="0 0 40 40" style="enable-background:new 0 0 40 40;" xml:space="preserve">
<style type="text/css">
	.st0{display:none;}
	.st1{display:inline;}
	.st2{display:inline;opacity:0.4;}
</style>
<g id="レイヤー_1_00000045580149225428929840000001218585766227824007_" class="st0">
	<g class="st1">
		<g>
			<path d="M-12,9v18h-28V9H-12 M-11,8h-30v20h30V8L-11,8z"/>
		</g>
		<g>
			<path d="M-41,16.27v3.46L-44,18L-41,16.27 M-40,14.54L-46,18l6,3.46V14.54L-40,14.54z"/>
		</g>
	</g>
</g>
<g id="speaking" class="st0">
	<g class="st1">
		<path d="M8.35,14v5.11L4.22,21.1c-0.76,0.36-0.76,1.44,0,1.8l4.13,1.99V26c0,1.66,1.34,3,3,3h20c1.66,0,3-1.34,3-3V14
			c0-1.66-1.34-3-3-3h-20C9.69,11,8.35,12.34,8.35,14z"/>
	</g>
</g>
<g id="thinking">
	<g>
		<g>
			<path d="M10.97,14c0-1.66,1.34-3,3-3h20c1.66,0,3,1.34,3,3v12c0,1.66-1.34,3-3,3h-20c-1.66,0-3-1.34-3-3
				C10.98,26,10.98,14,10.97,14z"/>
		</g>
		<circle cx="6.97" cy="23.5" r="3"/>
		<circle cx="2.52" cy="20" r="1.5"/>
	</g>
</g>
<g id="left" class="st0">
	<g class="st1">
		<g>
			<path d="M18.11,15.64v3.91l-3.16,1.52c-0.58,0.28-0.58,1.1,0,1.38l3.16,1.52v0.85c0,1.27,1.03,2.3,2.3,2.3h15.3
				c1.27,0,2.3-1.03,2.3-2.3v-9.18c0-1.27-1.03-2.3-2.3-2.3H20.4C19.14,13.35,18.11,14.37,18.11,15.64z"/>
		</g>
		<circle cx="7.3" cy="16.06" r="3.18"/>
		<path d="M7.3,20.03c2.93,0,5.3,2.37,5.3,5.3v1.32H2v-1.32C2,22.4,4.37,20.03,7.3,20.03z"/>
	</g>
</g>
<g id="right" class="st0">
	<g class="st1">
		<g>
			<path d="M21.9,15.64v3.91l3.16,1.52c0.58,0.28,0.58,1.1,0,1.38l-3.16,1.52v0.85c0,1.27-1.03,2.3-2.3,2.3H4.3
				c-1.27,0-2.3-1.03-2.3-2.3v-9.18c0-1.27,1.03-2.3,2.3-2.3h15.3C20.87,13.35,21.9,14.37,21.9,15.64z"/>
		</g>
		<circle cx="32.71" cy="16.06" r="3.18"/>
		<path d="M32.71,20.03c-2.93,0-5.3,2.37-5.3,5.3v1.32H38v-1.32C38.01,22.4,35.64,20.03,32.71,20.03z"/>
	</g>
</g>
<g id="b-none" class="st0">
	<g class="st2">
		<path d="M8.35,14v5.11L4.22,21.1c-0.76,0.36-0.76,1.44,0,1.8l4.13,1.99V26c0,1.66,1.34,3,3,3h20c1.66,0,3-1.34,3-3V14
			c0-1.66-1.34-3-3-3h-20C9.69,11,8.35,12.34,8.35,14z"/>
	</g>
</g>
<g id="b-on" class="st0">
	<g class="st2">
		<path d="M8.35,14v5.11L4.22,21.1c-0.76,0.36-0.76,1.44,0,1.8l4.13,1.99V26c0,1.66,1.34,3,3,3h20c1.66,0,3-1.34,3-3V14
			c0-1.66-1.34-3-3-3h-20C9.69,11,8.35,12.34,8.35,14z"/>
	</g>
	<g class="st1">
		<path d="M31.35,13c0.55,0,1,0.45,1,1v12c0,0.55-0.45,1-1,1h-20c-0.55,0-1-0.45-1-1v-1.11v-1.26l-1.13-0.55L6.96,22l2.25-1.08
			l1.13-0.55v-1.26V14c0-0.55,0.45-1,1-1H31.35 M31.35,11h-20c-1.66,0-3,1.34-3,3v5.11L4.22,21.1c-0.76,0.36-0.76,1.44,0,1.8
			l4.13,1.99V26c0,1.66,1.34,3,3,3h20c1.66,0,3-1.34,3-3V14C34.35,12.34,33,11,31.35,11L31.35,11z"/>
	</g>
</g>
<g id="spv-off" class="st0">
	<g class="st1">
		<g>
			<path d="M18.11,15.64v3.91l-3.16,1.52c-0.58,0.28-0.58,1.1,0,1.38l3.16,1.52v0.85c0,1.27,1.03,2.3,2.3,2.3h15.3
				c1.27,0,2.3-1.03,2.3-2.3v-9.18c0-1.27-1.03-2.3-2.3-2.3H20.4C19.14,13.35,18.11,14.37,18.11,15.64z"/>
		</g>
		<circle cx="7.3" cy="16.06" r="3.18"/>
		<path d="M7.3,20.03c2.93,0,5.3,2.37,5.3,5.3v1.32H2v-1.32C2,22.4,4.37,20.03,7.3,20.03z"/>
	</g>
</g>
<g id="spv-on" class="st0">
	<g class="st1">
		<g>
			<path d="M34.09,22.65H12.18l-1.52-3.16c-0.28-0.58-1.1-0.58-1.38,0l-1.52,3.16H5.91c-1.27,0-2.3,1.03-2.3,2.3v9.3
				c0,1.27,1.03,2.3,2.3,2.3h28.18c1.27,0,2.3-1.03,2.3-2.3v-9.3C36.39,23.68,35.36,22.65,34.09,22.65z"/>
		</g>
		<g>
			<circle cx="10" cy="6.63" r="3.18"/>
			<path d="M10,10.61c2.93,0,5.3,2.37,5.3,5.3v1.32H4.7V15.9C4.7,12.98,7.07,10.61,10,10.61z"/>
		</g>
	</g>
</g>
<g id="circle" class="st0">
	<g class="st1">
		<circle cx="20" cy="14.4" r="4.8"/>
		<path d="M20,20.4c4.42,0,8,3.58,8,8v2H12v-2C12,23.98,15.58,20.4,20,20.4z"/>
	</g>
	<path class="st1" d="M20,37c-9.37,0-17-7.63-17-17S10.63,3,20,3s17,7.63,17,17S29.37,37,20,37z M20,5C11.73,5,5,11.73,5,20
		s6.73,15,15,15s15-6.73,15-15S28.27,5,20,5z"/>
</g>
<g id="square" class="st0">
	<g class="st1">
		<circle cx="20" cy="14.4" r="4.8"/>
		<path d="M20,20.4c4.42,0,8,3.58,8,8v2H12v-2C12,23.98,15.58,20.4,20,20.4z"/>
	</g>
</g>
</svg>
